<svg id="keyboard" enable-background="new 0 0 512 512" height="512" viewBox="0 0 512 512" width="512" xmlns="http://www.w3.org/2000/svg"><g><path d="m446 391v-120c0-5.522-4.477-10-10-10h-360c-5.523 0-10 4.478-10 10v120c0 5.522 4.477 10 10 10h360c5.523 0 10-4.478 10-10zm-240-110h40v40h-40zm-60 0h40v40h-40zm-20 100h-40v-40h40zm0-60h-40v-40h40zm180 60h-160v-40h160zm0-60h-40v-40h40zm60 60h-40v-40h40zm0-60h-40v-40h40zm60 60h-40v-40h40zm0-60h-40v-40h40z"/><path d="m502 201h-236v-20c0-11.028 8.972-20 20-20h60c22.097 0 40-17.898 40-40 0-22.056-17.944-40-40-40h-180c-11.028 0-20-8.972-20-20 0-5.522-4.477-10-10-10s-10 4.478-10 10c0 22.056 17.944 40 40 40h180c11.028 0 20 8.972 20 20 0 11.045-8.954 20-20 20h-60c-22.056 0-40 17.944-40 40v20h-236c-5.523 0-10 4.478-10 10v240c0 5.522 4.477 10 10 10h201c5.523 0 10-4.478 10-10s-4.477-10-10-10h-191v-220h472v220h-191c-5.523 0-10 4.478-10 10s4.477 10 10 10h201c5.523 0 10-4.478 10-10v-240c0-5.523-4.477-10-10-10z"/><circle cx="256" cy="451" r="10"/></g></svg>
